<?xml version="1.0" standalone="no"?><!DOCTYPE svg PUBLIC "-//W3C//DTD SVG 1.1//EN" "http://www.w3.org/Graphics/SVG/1.1/DTD/svg11.dtd"><svg t="1758783345658" class="icon" viewBox="0 0 1024 1024" version="1.1" xmlns="http://www.w3.org/2000/svg" p-id="1861" xmlns:xlink="http://www.w3.org/1999/xlink" width="200" height="200"><path d="M547.648024 0C731.508091 2.147106 959.214321 87.579319 954.807104 295.509573c-8.701429 94.133642-85.319208 164.197098-183.860068 168.604315-81.024996 0-151.144954-43.78966-177.305744-126.905258-13.108646-59.101915-2.147106-113.796612 21.923081-166.344204-124.758153 21.923081-201.375931 120.350935-234.260552 234.260553l-8.70143 45.993269-4.435468 21.923081c-10.961541 148.82834 30.62451 242.961982 135.719693 328.394195 17.515864 13.108646 28.477404 19.66297 32.884622 41.586051s0 41.586051-8.814435 61.24902l-2.147106 4.407218v2.147106h2.147106v4.237709h2.147106v2.147105h2.147106v2.147106h2.147106v2.147106h8.588423l2.147106-2.147106c35.031728-32.884622 35.031728-107.242289 35.031728-144.421122-2.147106-142.274016-131.368979-253.923523-111.593004-400.604756 8.701429-61.249021 52.547591-135.719693 109.502401-166.344204 2.147106-2.147106 2.147106-2.147106 4.407217-2.147106-39.438945 48.140374-65.656238 107.242289-72.210561 170.751421-2.147106 70.063455 21.923081 135.719693 52.547591 199.172323 41.586051 78.764884 78.764884 168.604315 59.101915 258.33074l-2.147106 2.147105h2.147106c96.280748-78.764884 111.593003-207.930254 122.611047-321.726866 0-2.147106 2.147106-6.554323 4.407217-6.554323 13.108646-2.147106 21.923081 19.66297 28.477404 26.217293C834.314911 606.50091 891.184966 676.620869 950.286881 746.627821l13.108646 15.368758 13.108647 15.368758C886.777749 919.582851 740.096515 1011.62589 564.937877 1022.58743 286.944167 1026.938145 48.841425 803.58263 46.10104 538.810572 43.417157 247.369199 265.360103 8.701429 547.648024 0z" fill="#178431" p-id="1862"></path></svg>
